<?xml version="1.0" encoding="UTF-8"?>
<svg id="Calque_2" data-name="Calque 2" xmlns="http://www.w3.org/2000/svg" viewBox="0 0 245.41 148.6">
  <defs>
    <style>
      .cls-1 {
        font-size: 132.77px;
      }

      .cls-1, .cls-2 {
        fill: #2d2e83;
        font-family: AgencyFB-Reg, 'Agency FB';
      }

      .cls-3 {
        fill: none;
        stroke: #2d2e83;
        stroke-miterlimit: 10;
        stroke-width: 2px;
      }

      .cls-2 {
        font-size: 132.92px;
      }
    </style>
  </defs>
  <g id="Calque_1-2" data-name="Calque 1">
    <g>
      <g>
        <path class="cls-3" d="M132.89,28.52c-23.82,48.99,3.07,90.06,3.07,90.06"/>
        <path class="cls-3" d="M134.87,17.47c-2.9-.06-5.14,2.19-5.23,4.56-.08,2.33,1.91,4.62,4.68,4.8,2.93,.2,5.42-2.06,5.5-4.56,.08-2.38-2.05-4.74-4.95-4.8Z"/>
        <line class="cls-3" x1="120.99" y1="118.82" x2="140.52" y2="118.82"/>
        <path class="cls-3" d="M124.07,56.64c-18.63-8.43-16.16-15.87-16.16-15.87"/>
        <path class="cls-3" d="M123.04,69.34c-18.63-8.43-16.16-15.87-16.16-15.87"/>
      </g>
      <text class="cls-1" transform="translate(0 119.23) scale(.9 1)"><tspan x="0" y="0">S</tspan></text>
      <text class="cls-2" transform="translate(49.68 116) rotate(7.39) scale(.83 1) skewX(-1.13)"><tspan x="0" y="0">H</tspan></text>
      <text class="cls-1" transform="translate(153.02 120.82) scale(.77 1)"><tspan x="0" y="0">WE</tspan></text>
    </g>
  </g>
</svg>